<svg width="32" height="32" viewBox="0 0 32 32" fill="none" xmlns="http://www.w3.org/2000/svg">
<rect x="0.5" y="0.5" width="31" height="31" rx="15.5" fill="white"/>
<g clip-path="url(#clip0_189_5400)">
<path d="M21.8333 8.5H10.1667C9.25 8.5 8.5 9.25 8.5 10.1667V21.8333C8.5 22.75 9.25 23.5 10.1667 23.5H21.8333C22.75 23.5 23.5 22.75 23.5 21.8333V10.1667C23.5 9.25 22.75 8.5 21.8333 8.5ZM21.8333 21.8333H10.1667V18.0167L10.9917 18.8417L14.325 15.5083L17.6583 18.8417L20.9917 15.5167L21.8333 16.3583V21.8333ZM21.8333 13.9917L20.9917 13.15L17.6583 16.4917L14.325 13.1583L10.9917 16.4917L10.1667 15.6583V10.1667H21.8333V13.9917Z" fill="#101010"/>
</g>
<rect x="0.5" y="0.5" width="31" height="31" rx="15.5" stroke="white"/>
<defs>
<clipPath id="clip0_189_5400">
<rect width="20" height="20" fill="white" transform="translate(6 6)"/>
</clipPath>
</defs>
</svg>
