<svg width="20" height="20" viewBox="0 0 20 20" fill="none" xmlns="http://www.w3.org/2000/svg">
<path d="M9.99923 9.16663C10.2202 9.16663 10.4322 9.25443 10.5885 9.41071C10.7448 9.56699 10.8326 9.77895 10.8326 9.99996C10.8326 10.221 10.7448 10.4329 10.5885 10.5892C10.4322 10.7455 10.2202 10.8333 9.99923 10.8333C9.77822 10.8333 9.56626 10.7455 9.40998 10.5892C9.25369 10.4329 9.1659 10.221 9.1659 9.99996C9.1659 9.77895 9.25369 9.56699 9.40998 9.41071C9.56626 9.25443 9.77822 9.16663 9.99923 9.16663ZM3.5159 3.51663C4.70756 2.32496 7.2909 2.8583 9.99923 4.6333C12.7076 2.8583 15.2909 2.32496 16.4826 3.51663C17.6742 4.7083 17.1409 7.29163 15.3659 9.99996C17.1409 12.7083 17.6742 15.2916 16.4826 16.4833C15.2909 17.675 12.7076 17.1416 9.99923 15.3666C7.2909 17.1416 4.70756 17.675 3.5159 16.4833C2.32423 15.2916 2.85756 12.7083 4.63256 9.99996C2.85756 7.29163 2.32423 4.7083 3.5159 3.51663ZM12.9492 7.04996C13.4576 7.56663 13.9242 8.09163 14.3576 8.61663C15.5076 6.84163 15.9242 5.31663 15.2992 4.69996C14.6826 4.07496 13.1576 4.49163 11.3826 5.64163C11.9076 6.07496 12.4326 6.54163 12.9492 7.04996ZM7.04923 12.95C6.5409 12.4333 6.07423 11.9083 5.6409 11.3833C4.4909 13.1583 4.07423 14.6833 4.69923 15.3C5.3159 15.925 6.8409 15.5083 8.6159 14.3583C8.0909 13.925 7.5659 13.4583 7.04923 12.95ZM4.69923 4.69996C4.07423 5.31663 4.4909 6.84163 5.6409 8.61663C6.07423 8.09163 6.5409 7.56663 7.04923 7.04996C7.5659 6.54163 8.0909 6.07496 8.6159 5.64163C6.8409 4.49163 5.3159 4.07496 4.69923 4.69996ZM8.23256 11.7666C8.8159 12.35 9.4159 12.8833 9.99923 13.3583C10.5826 12.8833 11.1826 12.35 11.7659 11.7666C12.3492 11.1833 12.8826 10.5833 13.3576 9.99996C12.8826 9.41663 12.3492 8.81663 11.7659 8.2333C11.1826 7.64996 10.5826 7.11663 9.99923 6.64163C9.4159 7.11663 8.8159 7.64996 8.23256 8.2333C7.64923 8.81663 7.1159 9.41663 6.6409 9.99996C7.1159 10.5833 7.64923 11.1833 8.23256 11.7666ZM15.2992 15.3C15.9242 14.6833 15.5076 13.1583 14.3576 11.3833C13.9242 11.9083 13.4576 12.4333 12.9492 12.95C12.4326 13.4583 11.9076 13.925 11.3826 14.3583C13.1576 15.5083 14.6826 15.925 15.2992 15.3Z" fill="#0B2A59"/>
</svg>
