<svg width="20" height="20" viewBox="0 0 20 20" fill="none" xmlns="http://www.w3.org/2000/svg">
<path d="M4.68745 7.8125V6.5625H3.43745C3.18881 6.5625 2.95035 6.46373 2.77454 6.28791C2.59872 6.1121 2.49995 5.87364 2.49995 5.625C2.49995 5.37636 2.59872 5.1379 2.77454 4.96209C2.95035 4.78627 3.18881 4.6875 3.43745 4.6875H4.68745V3.4375C4.68745 3.18886 4.78622 2.9504 4.96204 2.77459C5.13785 2.59877 5.37631 2.5 5.62495 2.5C5.87359 2.5 6.11205 2.59877 6.28786 2.77459C6.46368 2.9504 6.56245 3.18886 6.56245 3.4375V4.6875H7.81245C8.06109 4.6875 8.29955 4.78627 8.47536 4.96209C8.65118 5.1379 8.74995 5.37636 8.74995 5.625C8.74995 5.87364 8.65118 6.1121 8.47536 6.28791C8.29955 6.46373 8.06109 6.5625 7.81245 6.5625H6.56245V7.8125C6.56245 8.06114 6.46368 8.2996 6.28786 8.47541C6.11205 8.65123 5.87359 8.75 5.62495 8.75C5.37631 8.75 5.13785 8.65123 4.96204 8.47541C4.78622 8.2996 4.68745 8.06114 4.68745 7.8125ZM12.1874 4.6875C11.9388 4.6875 11.7004 4.78627 11.5245 4.96209C11.3487 5.1379 11.2499 5.37636 11.2499 5.625C11.2499 5.87364 11.3487 6.1121 11.5245 6.28791C11.7004 6.46373 11.9388 6.5625 12.1874 6.5625H16.5624C16.8111 6.5625 17.0495 6.46373 17.2254 6.28791C17.4012 6.1121 17.4999 5.87364 17.4999 5.625C17.4999 5.37636 17.4012 5.1379 17.2254 4.96209C17.0495 4.78627 16.8111 4.6875 16.5624 4.6875H12.1874ZM2.77495 15.9C2.68284 15.9858 2.60896 16.0893 2.55772 16.2043C2.50648 16.3193 2.47893 16.4435 2.47671 16.5693C2.47449 16.6952 2.49764 16.8203 2.54479 16.937C2.59195 17.0537 2.66213 17.1598 2.75115 17.2488C2.84017 17.3378 2.94622 17.408 3.06295 17.4552C3.17969 17.5023 3.30472 17.5255 3.4306 17.5232C3.55648 17.521 3.68062 17.4935 3.79562 17.4422C3.91062 17.391 4.01412 17.3171 4.09995 17.225L5.62495 15.7L7.14995 17.225C7.32767 17.3906 7.56272 17.4808 7.8056 17.4765C8.04848 17.4722 8.28021 17.3738 8.45198 17.202C8.62374 17.0303 8.72213 16.7985 8.72642 16.5557C8.7307 16.3128 8.64055 16.0777 8.47495 15.9L6.94995 14.375L8.47495 12.85C8.56706 12.7642 8.64093 12.6607 8.69217 12.5457C8.74341 12.4307 8.77097 12.3065 8.77319 12.1807C8.77541 12.0548 8.75225 11.9297 8.7051 11.813C8.65795 11.6963 8.58777 11.5902 8.49875 11.5012C8.40972 11.4122 8.30368 11.342 8.18694 11.2948C8.07021 11.2477 7.94517 11.2245 7.81929 11.2268C7.69342 11.229 7.56927 11.2565 7.45428 11.3078C7.33928 11.359 7.23577 11.4329 7.14995 11.525L5.62495 13.05L4.09995 11.525C3.92223 11.3594 3.68717 11.2692 3.44429 11.2735C3.20142 11.2778 2.96969 11.3762 2.79792 11.548C2.62615 11.7197 2.52776 11.9515 2.52348 12.1943C2.51919 12.4372 2.60935 12.6723 2.77495 12.85L4.29995 14.375L2.77495 15.9ZM14.3749 12.5C14.7065 12.5 15.0244 12.3683 15.2588 12.1339C15.4933 11.8995 15.6249 11.5815 15.6249 11.25C15.6249 10.9185 15.4933 10.6005 15.2588 10.3661C15.0244 10.1317 14.7065 10 14.3749 10C14.0434 10 13.7255 10.1317 13.4911 10.3661C13.2566 10.6005 13.1249 10.9185 13.1249 11.25C13.1249 11.5815 13.2566 11.8995 13.4911 12.1339C13.7255 12.3683 14.0434 12.5 14.3749 12.5ZM11.8749 12.8125C11.6263 12.8125 11.3879 12.9113 11.212 13.0871C11.0362 13.2629 10.9374 13.5014 10.9374 13.75C10.9374 13.9986 11.0362 14.2371 11.212 14.4129C11.3879 14.5887 11.6263 14.6875 11.8749 14.6875H16.8749C17.1236 14.6875 17.362 14.5887 17.5379 14.4129C17.7137 14.2371 17.8124 13.9986 17.8124 13.75C17.8124 13.5014 17.7137 13.2629 17.5379 13.0871C17.362 12.9113 17.1236 12.8125 16.8749 12.8125H11.8749ZM15.6249 16.25C15.6249 16.5815 15.4933 16.8995 15.2588 17.1339C15.0244 17.3683 14.7065 17.5 14.3749 17.5C14.0434 17.5 13.7255 17.3683 13.4911 17.1339C13.2566 16.8995 13.1249 16.5815 13.1249 16.25C13.1249 15.9185 13.2566 15.6005 13.4911 15.3661C13.7255 15.1317 14.0434 15 14.3749 15C14.7065 15 15.0244 15.1317 15.2588 15.3661C15.4933 15.6005 15.6249 15.9185 15.6249 16.25Z" fill="#0B2A59"/>
</svg>
